# xmcd CD database file
#
# Track frame offsets:
#	150
#	17438
#	33230
#	51425
#	72335
#	88356
#	109418
#	122806
#	136980
#	154731
#	169565
#	192119
#
# Disc length: 2906 seconds
#
# Revision: 1
# Processed by: cddbd v1.5.2PL0 Copyright (c) Steve Scherf et al.
# Submitted via: CDValet v3.40 - Copyright (c) 1996 - 1998 Greg Leichner
#
DISCID=a20b580c
DTITLE=Mosser, Jonell - Trust Yourself
DYEAR=1900
DGENRE=
TTITLE0=Trust Yourself
TTITLE1=Good Thing
TTITLE2=Light In Your Eyes
TTITLE3=Learn To Love
TTITLE4=There You Are
TTITLE5=Bottom Rail
TTITLE6=Livin' In The Devil's Hand
TTITLE7=Deeper
TTITLE8=Chokin' Kind
TTITLE9=Tennessee Blues
TTITLE10=You Know Who You Are
TTITLE11=Morning Light
EXTD=@ 2009
EXTT0=
EXTT1=
EXTT2=
EXTT3=
EXTT4=
EXTT5=
EXTT6=
EXTT7=
EXTT8=
EXTT9=
EXTT10=
EXTT11=
PLAYORDER=
